<svg width="205" height="35" viewBox="0 0 205 35" fill="none" xmlns="http://www.w3.org/2000/svg">
<rect x="5" width="200" height="35" fill="#D2292D"/>
<path d="M23.5584 15.488L22.8864 18.632H25.7664V22.328H22.0944L21.3024 26H17.4624L18.2544 22.328H14.2704L13.4784 26H9.63844L10.4304 22.328H6.87844V18.632H11.2224L11.8944 15.488H8.41444V11.792H12.6624L13.4304 8.24H17.2704L16.5024 11.792H20.4864L21.2544 8.24H25.0944L24.3264 11.792H27.3024V15.488H23.5584ZM19.7184 15.488H15.7344L15.0624 18.632H19.0464L19.7184 15.488ZM48.6696 9.152V26H44.5656V15.896L40.7976 26H37.4856L33.6936 15.872V26H29.5896V9.152H34.4376L39.1656 20.816L43.8456 9.152H48.6696ZM50.8048 19.28C50.8048 17.904 51.0608 16.696 51.5728 15.656C52.1008 14.616 52.8128 13.816 53.7088 13.256C54.6048 12.696 55.6048 12.416 56.7088 12.416C57.6528 12.416 58.4768 12.608 59.1808 12.992C59.9008 13.376 60.4528 13.88 60.8368 14.504V12.608H64.9408V26H60.8368V24.104C60.4368 24.728 59.8768 25.232 59.1568 25.616C58.4528 26 57.6288 26.192 56.6848 26.192C55.5968 26.192 54.6048 25.912 53.7088 25.352C52.8128 24.776 52.1008 23.968 51.5728 22.928C51.0608 21.872 50.8048 20.656 50.8048 19.28ZM60.8368 19.304C60.8368 18.28 60.5488 17.472 59.9728 16.88C59.4128 16.288 58.7248 15.992 57.9088 15.992C57.0928 15.992 56.3968 16.288 55.8208 16.88C55.2608 17.456 54.9808 18.256 54.9808 19.28C54.9808 20.304 55.2608 21.12 55.8208 21.728C56.3968 22.32 57.0928 22.616 57.9088 22.616C58.7248 22.616 59.4128 22.32 59.9728 21.728C60.5488 21.136 60.8368 20.328 60.8368 19.304ZM73.3579 26.192C72.1899 26.192 71.1499 25.992 70.2379 25.592C69.3259 25.192 68.6059 24.648 68.0779 23.96C67.5499 23.256 67.2539 22.472 67.1899 21.608H71.2459C71.2939 22.072 71.5099 22.448 71.8939 22.736C72.2779 23.024 72.7499 23.168 73.3099 23.168C73.8219 23.168 74.2139 23.072 74.4859 22.88C74.7739 22.672 74.9179 22.408 74.9179 22.088C74.9179 21.704 74.7179 21.424 74.3179 21.248C73.9179 21.056 73.2699 20.848 72.3739 20.624C71.4139 20.4 70.6139 20.168 69.9739 19.928C69.3339 19.672 68.7819 19.28 68.3179 18.752C67.8539 18.208 67.6219 17.48 67.6219 16.568C67.6219 15.8 67.8299 15.104 68.2459 14.48C68.6779 13.84 69.3019 13.336 70.1179 12.968C70.9499 12.6 71.9339 12.416 73.0699 12.416C74.7499 12.416 76.0699 12.832 77.0299 13.664C78.0059 14.496 78.5659 15.6 78.7099 16.976H74.9179C74.8539 16.512 74.6459 16.144 74.2939 15.872C73.9579 15.6 73.5099 15.464 72.9499 15.464C72.4699 15.464 72.1019 15.56 71.8459 15.752C71.5899 15.928 71.4619 16.176 71.4619 16.496C71.4619 16.88 71.6619 17.168 72.0619 17.36C72.4779 17.552 73.1179 17.744 73.9819 17.936C74.9739 18.192 75.7819 18.448 76.4059 18.704C77.0299 18.944 77.5739 19.344 78.0379 19.904C78.5179 20.448 78.7659 21.184 78.7819 22.112C78.7819 22.896 78.5579 23.6 78.1099 24.224C77.6779 24.832 77.0459 25.312 76.2139 25.664C75.3979 26.016 74.4459 26.192 73.3579 26.192ZM94.5167 12.608V26H90.4127V24.176C89.9967 24.768 89.4287 25.248 88.7087 25.616C88.0047 25.968 87.2207 26.144 86.3567 26.144C85.3327 26.144 84.4287 25.92 83.6447 25.472C82.8607 25.008 82.2527 24.344 81.8207 23.48C81.3887 22.616 81.1727 21.6 81.1727 20.432V12.608H85.2527V19.88C85.2527 20.776 85.4847 21.472 85.9487 21.968C86.4127 22.464 87.0367 22.712 87.8207 22.712C88.6207 22.712 89.2527 22.464 89.7167 21.968C90.1807 21.472 90.4127 20.776 90.4127 19.88V12.608H94.5167ZM105.649 26L101.569 20.384V26H97.4646V8.24H101.569V18.056L105.625 12.608H110.689L105.121 19.328L110.737 26H105.649ZM122.501 17.36C123.477 17.568 124.261 18.056 124.853 18.824C125.445 19.576 125.741 20.44 125.741 21.416C125.741 22.824 125.245 23.944 124.253 24.776C123.277 25.592 121.909 26 120.149 26H112.301V9.152H119.885C121.597 9.152 122.933 9.544 123.893 10.328C124.869 11.112 125.357 12.176 125.357 13.52C125.357 14.512 125.093 15.336 124.565 15.992C124.053 16.648 123.365 17.104 122.501 17.36ZM116.405 15.968H119.093C119.765 15.968 120.277 15.824 120.629 15.536C120.997 15.232 121.181 14.792 121.181 14.216C121.181 13.64 120.997 13.2 120.629 12.896C120.277 12.592 119.765 12.44 119.093 12.44H116.405V15.968ZM119.429 22.688C120.117 22.688 120.645 22.536 121.013 22.232C121.397 21.912 121.589 21.456 121.589 20.864C121.589 20.272 121.389 19.808 120.989 19.472C120.605 19.136 120.069 18.968 119.381 18.968H116.405V22.688H119.429ZM127.305 19.28C127.305 17.904 127.561 16.696 128.073 15.656C128.601 14.616 129.313 13.816 130.209 13.256C131.105 12.696 132.105 12.416 133.209 12.416C134.153 12.416 134.977 12.608 135.681 12.992C136.401 13.376 136.953 13.88 137.337 14.504V12.608H141.441V26H137.337V24.104C136.937 24.728 136.377 25.232 135.657 25.616C134.953 26 134.129 26.192 133.185 26.192C132.097 26.192 131.105 25.912 130.209 25.352C129.313 24.776 128.601 23.968 128.073 22.928C127.561 21.872 127.305 20.656 127.305 19.28ZM137.337 19.304C137.337 18.28 137.049 17.472 136.473 16.88C135.913 16.288 135.225 15.992 134.409 15.992C133.593 15.992 132.897 16.288 132.321 16.88C131.761 17.456 131.481 18.256 131.481 19.28C131.481 20.304 131.761 21.12 132.321 21.728C132.897 22.32 133.593 22.616 134.409 22.616C135.225 22.616 135.913 22.32 136.473 21.728C137.049 21.136 137.337 20.328 137.337 19.304ZM148.514 14.84C148.994 14.104 149.594 13.528 150.314 13.112C151.034 12.68 151.834 12.464 152.714 12.464V16.808H151.586C150.562 16.808 149.794 17.032 149.282 17.48C148.77 17.912 148.514 18.68 148.514 19.784V26H144.41V12.608H148.514V14.84ZM153.86 19.28C153.86 17.904 154.116 16.696 154.628 15.656C155.156 14.616 155.868 13.816 156.764 13.256C157.66 12.696 158.66 12.416 159.764 12.416C160.708 12.416 161.532 12.608 162.236 12.992C162.956 13.376 163.508 13.88 163.892 14.504V12.608H167.996V26H163.892V24.104C163.492 24.728 162.932 25.232 162.212 25.616C161.508 26 160.684 26.192 159.74 26.192C158.652 26.192 157.66 25.912 156.764 25.352C155.868 24.776 155.156 23.968 154.628 22.928C154.116 21.872 153.86 20.656 153.86 19.28ZM163.892 19.304C163.892 18.28 163.604 17.472 163.028 16.88C162.468 16.288 161.78 15.992 160.964 15.992C160.148 15.992 159.452 16.288 158.876 16.88C158.316 17.456 158.036 18.256 158.036 19.28C158.036 20.304 158.316 21.12 158.876 21.728C159.452 22.32 160.148 22.616 160.964 22.616C161.78 22.616 162.468 22.32 163.028 21.728C163.604 21.136 163.892 20.328 163.892 19.304ZM179.125 12.464C180.693 12.464 181.941 12.976 182.869 14C183.813 15.008 184.285 16.4 184.285 18.176V26H180.205V18.728C180.205 17.832 179.973 17.136 179.509 16.64C179.045 16.144 178.421 15.896 177.637 15.896C176.853 15.896 176.229 16.144 175.765 16.64C175.301 17.136 175.069 17.832 175.069 18.728V26H170.965V12.608H175.069V14.384C175.485 13.792 176.045 13.328 176.749 12.992C177.453 12.64 178.245 12.464 179.125 12.464ZM192.224 12.416C193.168 12.416 193.992 12.608 194.696 12.992C195.416 13.376 195.968 13.88 196.352 14.504V12.608H200.456V25.976C200.456 27.208 200.208 28.32 199.712 29.312C199.232 30.32 198.488 31.12 197.48 31.712C196.488 32.304 195.248 32.6 193.76 32.6C191.776 32.6 190.168 32.128 188.936 31.184C187.704 30.256 187 28.992 186.824 27.392H190.88C191.008 27.904 191.312 28.304 191.792 28.592C192.272 28.896 192.864 29.048 193.568 29.048C194.416 29.048 195.088 28.8 195.584 28.304C196.096 27.824 196.352 27.048 196.352 25.976V24.08C195.952 24.704 195.4 25.216 194.696 25.616C193.992 26 193.168 26.192 192.224 26.192C191.12 26.192 190.12 25.912 189.224 25.352C188.328 24.776 187.616 23.968 187.088 22.928C186.576 21.872 186.32 20.656 186.32 19.28C186.32 17.904 186.576 16.696 187.088 15.656C187.616 14.616 188.328 13.816 189.224 13.256C190.12 12.696 191.12 12.416 192.224 12.416ZM196.352 19.304C196.352 18.28 196.064 17.472 195.488 16.88C194.928 16.288 194.24 15.992 193.424 15.992C192.608 15.992 191.912 16.288 191.336 16.88C190.776 17.456 190.496 18.256 190.496 19.28C190.496 20.304 190.776 21.12 191.336 21.728C191.912 22.32 192.608 22.616 193.424 22.616C194.24 22.616 194.928 22.32 195.488 21.728C196.064 21.136 196.352 20.328 196.352 19.304Z" fill="white"/>
</svg>
