<svg width="890" height="56" viewBox="0 0 890 56" fill="none" xmlns="http://www.w3.org/2000/svg">
<rect x="593" y="6" width="280" height="45" fill="#D2292D"/>
<path d="M15.47 37L5.712 26.188V37H2.618V13.302H5.712V24.284L15.504 13.302H19.414L8.67 25.168L19.516 37H15.47ZM31.0975 37.306C29.3522 37.306 27.7655 36.9093 26.3375 36.116C24.9322 35.3227 23.8215 34.2007 23.0055 32.75C22.2122 31.2767 21.8155 29.5767 21.8155 27.65C21.8155 25.746 22.2235 24.0687 23.0395 22.618C23.8782 21.1447 25.0115 20.0227 26.4395 19.252C27.8675 18.4587 29.4655 18.062 31.2335 18.062C33.0015 18.062 34.5995 18.4587 36.0275 19.252C37.4555 20.0227 38.5775 21.1333 39.3935 22.584C40.2322 24.0347 40.6515 25.7233 40.6515 27.65C40.6515 29.5767 40.2208 31.2767 39.3595 32.75C38.5208 34.2007 37.3762 35.3227 35.9255 36.116C34.4748 36.9093 32.8655 37.306 31.0975 37.306ZM31.0975 34.586C32.2082 34.586 33.2508 34.3253 34.2255 33.804C35.2002 33.2827 35.9822 32.5007 36.5715 31.458C37.1835 30.4153 37.4895 29.146 37.4895 27.65C37.4895 26.154 37.1948 24.8847 36.6055 23.842C36.0162 22.7993 35.2455 22.0287 34.2935 21.53C33.3415 21.0087 32.3102 20.748 31.1995 20.748C30.0662 20.748 29.0235 21.0087 28.0715 21.53C27.1422 22.0287 26.3942 22.7993 25.8275 23.842C25.2608 24.8847 24.9775 26.154 24.9775 27.65C24.9775 29.1687 25.2495 30.4493 25.7935 31.492C26.3602 32.5347 27.1082 33.3167 28.0375 33.838C28.9668 34.3367 29.9868 34.586 31.0975 34.586ZM47.8136 11.84V37H44.7196V11.84H47.8136ZM51.9308 27.616C51.9308 25.712 52.3161 24.046 53.0868 22.618C53.8574 21.1673 54.9114 20.0453 56.2488 19.252C57.6088 18.4587 59.1161 18.062 60.7708 18.062C62.4028 18.062 63.8194 18.4133 65.0208 19.116C66.2221 19.8187 67.1174 20.7027 67.7068 21.768V18.368H70.8348V37H67.7068V33.532C67.0948 34.62 66.1768 35.5267 64.9528 36.252C63.7514 36.9547 62.3461 37.306 60.7368 37.306C59.0821 37.306 57.5861 36.898 56.2488 36.082C54.9114 35.266 53.8574 34.1213 53.0868 32.648C52.3161 31.1747 51.9308 29.4973 51.9308 27.616ZM67.7068 27.65C67.7068 26.2447 67.4234 25.0207 66.8568 23.978C66.2901 22.9353 65.5194 22.142 64.5448 21.598C63.5928 21.0313 62.5388 20.748 61.3828 20.748C60.2268 20.748 59.1728 21.02 58.2208 21.564C57.2688 22.108 56.5094 22.9013 55.9428 23.944C55.3761 24.9867 55.0928 26.2107 55.0928 27.616C55.0928 29.044 55.3761 30.2907 55.9428 31.356C56.5094 32.3987 57.2688 33.2033 58.2208 33.77C59.1728 34.314 60.2268 34.586 61.3828 34.586C62.5388 34.586 63.5928 34.314 64.5448 33.77C65.5194 33.2033 66.2901 32.3987 66.8568 31.356C67.4234 30.2907 67.7068 29.0553 67.7068 27.65ZM79.1573 21.836C79.792 20.7253 80.7213 19.8187 81.9453 19.116C83.1693 18.4133 84.5633 18.062 86.1273 18.062C87.8046 18.062 89.312 18.4587 90.6493 19.252C91.9866 20.0453 93.0406 21.1673 93.8113 22.618C94.582 24.046 94.9673 25.712 94.9673 27.616C94.9673 29.4973 94.582 31.1747 93.8113 32.648C93.0406 34.1213 91.9753 35.266 90.6153 36.082C89.278 36.898 87.782 37.306 86.1273 37.306C84.518 37.306 83.1013 36.9547 81.8773 36.252C80.676 35.5493 79.7693 34.654 79.1573 33.566V37H76.0633V11.84H79.1573V21.836ZM91.8053 27.616C91.8053 26.2107 91.522 24.9867 90.9553 23.944C90.3886 22.9013 89.618 22.108 88.6433 21.564C87.6913 21.02 86.6373 20.748 85.4813 20.748C84.348 20.748 83.294 21.0313 82.3193 21.598C81.3673 22.142 80.5966 22.9467 80.0073 24.012C79.4406 25.0547 79.1573 26.2673 79.1573 27.65C79.1573 29.0553 79.4406 30.2907 80.0073 31.356C80.5966 32.3987 81.3673 33.2033 82.3193 33.77C83.294 34.314 84.348 34.586 85.4813 34.586C86.6373 34.586 87.6913 34.314 88.6433 33.77C89.618 33.2033 90.3886 32.3987 90.9553 31.356C91.522 30.2907 91.8053 29.044 91.8053 27.616ZM107.166 37.306C105.421 37.306 103.834 36.9093 102.406 36.116C101.001 35.3227 99.8899 34.2007 99.0739 32.75C98.2805 31.2767 97.8839 29.5767 97.8839 27.65C97.8839 25.746 98.2919 24.0687 99.1079 22.618C99.9465 21.1447 101.08 20.0227 102.508 19.252C103.936 18.4587 105.534 18.062 107.302 18.062C109.07 18.062 110.668 18.4587 112.096 19.252C113.524 20.0227 114.646 21.1333 115.462 22.584C116.301 24.0347 116.72 25.7233 116.72 27.65C116.72 29.5767 116.289 31.2767 115.428 32.75C114.589 34.2007 113.445 35.3227 111.994 36.116C110.543 36.9093 108.934 37.306 107.166 37.306ZM107.166 34.586C108.277 34.586 109.319 34.3253 110.294 33.804C111.269 33.2827 112.051 32.5007 112.64 31.458C113.252 30.4153 113.558 29.146 113.558 27.65C113.558 26.154 113.263 24.8847 112.674 23.842C112.085 22.7993 111.314 22.0287 110.362 21.53C109.41 21.0087 108.379 20.748 107.268 20.748C106.135 20.748 105.092 21.0087 104.14 21.53C103.211 22.0287 102.463 22.7993 101.896 23.842C101.329 24.8847 101.046 26.154 101.046 27.65C101.046 29.1687 101.318 30.4493 101.862 31.492C102.429 32.5347 103.177 33.3167 104.106 33.838C105.035 34.3367 106.055 34.586 107.166 34.586ZM123.882 21.394C124.426 20.3287 125.197 19.5013 126.194 18.912C127.214 18.3227 128.449 18.028 129.9 18.028V21.224H129.084C125.616 21.224 123.882 23.1053 123.882 26.868V37H120.788V18.368H123.882V21.394ZM132.316 27.616C132.316 25.712 132.701 24.046 133.472 22.618C134.242 21.1673 135.296 20.0453 136.634 19.252C137.994 18.4587 139.501 18.062 141.156 18.062C142.788 18.062 144.204 18.4133 145.406 19.116C146.607 19.8187 147.502 20.7027 148.092 21.768V18.368H151.22V37H148.092V33.532C147.48 34.62 146.562 35.5267 145.338 36.252C144.136 36.9547 142.731 37.306 141.122 37.306C139.467 37.306 137.971 36.898 136.634 36.082C135.296 35.266 134.242 34.1213 133.472 32.648C132.701 31.1747 132.316 29.4973 132.316 27.616ZM148.092 27.65C148.092 26.2447 147.808 25.0207 147.242 23.978C146.675 22.9353 145.904 22.142 144.93 21.598C143.978 21.0313 142.924 20.748 141.768 20.748C140.612 20.748 139.558 21.02 138.606 21.564C137.654 22.108 136.894 22.9013 136.328 23.944C135.761 24.9867 135.478 26.2107 135.478 27.616C135.478 29.044 135.761 30.2907 136.328 31.356C136.894 32.3987 137.654 33.2033 138.606 33.77C139.558 34.314 140.612 34.586 141.768 34.586C142.924 34.586 143.978 34.314 144.93 33.77C145.904 33.2033 146.675 32.3987 147.242 31.356C147.808 30.2907 148.092 29.0553 148.092 27.65ZM163.044 37.306C161.616 37.306 160.335 37.068 159.202 36.592C158.069 36.0933 157.173 35.4133 156.516 34.552C155.859 33.668 155.496 32.6593 155.428 31.526H158.624C158.715 32.4553 159.145 33.2147 159.916 33.804C160.709 34.3933 161.741 34.688 163.01 34.688C164.189 34.688 165.118 34.4273 165.798 33.906C166.478 33.3847 166.818 32.7273 166.818 31.934C166.818 31.118 166.455 30.5173 165.73 30.132C165.005 29.724 163.883 29.3273 162.364 28.942C160.981 28.5793 159.848 28.2167 158.964 27.854C158.103 27.4687 157.355 26.9133 156.72 26.188C156.108 25.44 155.802 24.4653 155.802 23.264C155.802 22.312 156.085 21.4393 156.652 20.646C157.219 19.8527 158.023 19.2293 159.066 18.776C160.109 18.3 161.299 18.062 162.636 18.062C164.699 18.062 166.365 18.5833 167.634 19.626C168.903 20.6687 169.583 22.0967 169.674 23.91H166.58C166.512 22.9353 166.115 22.1533 165.39 21.564C164.687 20.9747 163.735 20.68 162.534 20.68C161.423 20.68 160.539 20.918 159.882 21.394C159.225 21.87 158.896 22.4933 158.896 23.264C158.896 23.876 159.089 24.386 159.474 24.794C159.882 25.1793 160.381 25.4967 160.97 25.746C161.582 25.9727 162.421 26.2333 163.486 26.528C164.823 26.8907 165.911 27.2533 166.75 27.616C167.589 27.956 168.303 28.4773 168.892 29.18C169.504 29.8827 169.821 30.8007 169.844 31.934C169.844 32.954 169.561 33.872 168.994 34.688C168.427 35.504 167.623 36.15 166.58 36.626C165.56 37.0793 164.381 37.306 163.044 37.306ZM175.81 15.342C175.22 15.342 174.722 15.138 174.314 14.73C173.906 14.322 173.702 13.8233 173.702 13.234C173.702 12.6447 173.906 12.146 174.314 11.738C174.722 11.33 175.22 11.126 175.81 11.126C176.376 11.126 176.852 11.33 177.238 11.738C177.646 12.146 177.85 12.6447 177.85 13.234C177.85 13.8233 177.646 14.322 177.238 14.73C176.852 15.138 176.376 15.342 175.81 15.342ZM177.306 18.368V37H174.212V18.368H177.306ZM196.947 13.132V37H191.133V13.132H196.947ZM216.019 32.784H207.111L205.683 37H199.597L208.233 13.132H214.965L223.601 37H217.447L216.019 32.784ZM214.523 28.296L211.565 19.558L208.641 28.296H214.523ZM245.606 37L240.642 27.99H239.248V37H233.434V13.132H243.192C245.074 13.132 246.672 13.4607 247.986 14.118C249.324 14.7753 250.321 15.682 250.978 16.838C251.636 17.9713 251.964 19.2407 251.964 20.646C251.964 22.2327 251.511 23.6493 250.604 24.896C249.72 26.1427 248.406 27.0267 246.66 27.548L252.168 37H245.606ZM239.248 23.876H242.852C243.918 23.876 244.711 23.6153 245.232 23.094C245.776 22.5727 246.048 21.836 246.048 20.884C246.048 19.9773 245.776 19.2633 245.232 18.742C244.711 18.2207 243.918 17.96 242.852 17.96H239.248V23.876ZM269.452 37L261.428 26.46V37H255.614V13.132H261.428V23.604L269.384 13.132H276.218L266.97 24.828L276.558 37H269.452ZM285.744 32.342C286.515 31.73 286.866 31.4467 286.798 31.492C289.019 29.656 290.765 28.1487 292.034 26.97C293.326 25.7913 294.414 24.556 295.298 23.264C296.182 21.972 296.624 20.714 296.624 19.49C296.624 18.5607 296.409 17.8353 295.978 17.314C295.547 16.7927 294.901 16.532 294.04 16.532C293.179 16.532 292.499 16.8607 292 17.518C291.524 18.1527 291.286 19.0593 291.286 20.238H285.676C285.721 18.3113 286.129 16.702 286.9 15.41C287.693 14.118 288.725 13.166 289.994 12.554C291.286 11.942 292.714 11.636 294.278 11.636C296.975 11.636 299.004 12.3273 300.364 13.71C301.747 15.0927 302.438 16.8947 302.438 19.116C302.438 21.5413 301.611 23.7967 299.956 25.882C298.301 27.9447 296.193 29.962 293.632 31.934H302.812V36.66H285.744V32.342ZM305.372 24.25C305.372 20.3513 306.12 17.28 307.616 15.036C309.134 12.792 311.571 11.67 314.926 11.67C318.28 11.67 320.706 12.792 322.202 15.036C323.72 17.28 324.48 20.3513 324.48 24.25C324.48 28.194 323.72 31.288 322.202 33.532C320.706 35.776 318.28 36.898 314.926 36.898C311.571 36.898 309.134 35.776 307.616 33.532C306.12 31.288 305.372 28.194 305.372 24.25ZM318.768 24.25C318.768 21.9607 318.518 20.204 318.02 18.98C317.521 17.7333 316.49 17.11 314.926 17.11C313.362 17.11 312.33 17.7333 311.832 18.98C311.333 20.204 311.084 21.9607 311.084 24.25C311.084 25.7913 311.174 27.072 311.356 28.092C311.537 29.0893 311.9 29.9053 312.444 30.54C313.01 31.152 313.838 31.458 314.926 31.458C316.014 31.458 316.83 31.152 317.374 30.54C317.94 29.9053 318.314 29.0893 318.496 28.092C318.677 27.072 318.768 25.7913 318.768 24.25ZM327.347 32.342C328.118 31.73 328.469 31.4467 328.401 31.492C330.623 29.656 332.368 28.1487 333.637 26.97C334.929 25.7913 336.017 24.556 336.901 23.264C337.785 21.972 338.227 20.714 338.227 19.49C338.227 18.5607 338.012 17.8353 337.581 17.314C337.151 16.7927 336.505 16.532 335.643 16.532C334.782 16.532 334.102 16.8607 333.603 17.518C333.127 18.1527 332.889 19.0593 332.889 20.238H327.279C327.325 18.3113 327.733 16.702 328.503 15.41C329.297 14.118 330.328 13.166 331.597 12.554C332.889 11.942 334.317 11.636 335.881 11.636C338.579 11.636 340.607 12.3273 341.967 13.71C343.35 15.0927 344.041 16.8947 344.041 19.116C344.041 21.5413 343.214 23.7967 341.559 25.882C339.905 27.9447 337.797 29.962 335.235 31.934H344.415V36.66H327.347V32.342ZM364.451 17.246H353.843V21.938C354.297 21.4393 354.931 21.0313 355.747 20.714C356.563 20.3967 357.447 20.238 358.399 20.238C360.099 20.238 361.505 20.6233 362.615 21.394C363.749 22.1647 364.576 23.162 365.097 24.386C365.619 25.61 365.879 26.936 365.879 28.364C365.879 31.016 365.131 33.124 363.635 34.688C362.139 36.2293 360.031 37 357.311 37C355.498 37 353.923 36.694 352.585 36.082C351.248 35.4473 350.217 34.5747 349.491 33.464C348.766 32.3533 348.369 31.0727 348.301 29.622H353.979C354.115 30.3247 354.444 30.914 354.965 31.39C355.487 31.8433 356.201 32.07 357.107 32.07C358.173 32.07 358.966 31.73 359.487 31.05C360.009 30.37 360.269 29.4633 360.269 28.33C360.269 27.2193 359.997 26.3693 359.453 25.78C358.909 25.1907 358.116 24.896 357.073 24.896C356.303 24.896 355.668 25.0887 355.169 25.474C354.671 25.8367 354.342 26.324 354.183 26.936H348.573V12.146H364.451V17.246ZM391.492 22.652V27.48H376.532V22.652H391.492ZM403.017 32.342C403.788 31.73 404.139 31.4467 404.071 31.492C406.293 29.656 408.038 28.1487 409.307 26.97C410.599 25.7913 411.687 24.556 412.571 23.264C413.455 21.972 413.897 20.714 413.897 19.49C413.897 18.5607 413.682 17.8353 413.251 17.314C412.821 16.7927 412.175 16.532 411.313 16.532C410.452 16.532 409.772 16.8607 409.273 17.518C408.797 18.1527 408.559 19.0593 408.559 20.238H402.949C402.995 18.3113 403.403 16.702 404.173 15.41C404.967 14.118 405.998 13.166 407.267 12.554C408.559 11.942 409.987 11.636 411.551 11.636C414.249 11.636 416.277 12.3273 417.637 13.71C419.02 15.0927 419.711 16.8947 419.711 19.116C419.711 21.5413 418.884 23.7967 417.229 25.882C415.575 27.9447 413.467 29.962 410.905 31.934H420.085V36.66H403.017V32.342ZM422.645 24.25C422.645 20.3513 423.393 17.28 424.889 15.036C426.408 12.792 428.845 11.67 432.199 11.67C435.554 11.67 437.979 12.792 439.475 15.036C440.994 17.28 441.753 20.3513 441.753 24.25C441.753 28.194 440.994 31.288 439.475 33.532C437.979 35.776 435.554 36.898 432.199 36.898C428.845 36.898 426.408 35.776 424.889 33.532C423.393 31.288 422.645 28.194 422.645 24.25ZM436.041 24.25C436.041 21.9607 435.792 20.204 435.293 18.98C434.795 17.7333 433.763 17.11 432.199 17.11C430.635 17.11 429.604 17.7333 429.105 18.98C428.607 20.204 428.357 21.9607 428.357 24.25C428.357 25.7913 428.448 27.072 428.629 28.092C428.811 29.0893 429.173 29.9053 429.717 30.54C430.284 31.152 431.111 31.458 432.199 31.458C433.287 31.458 434.103 31.152 434.647 30.54C435.214 29.9053 435.588 29.0893 435.769 28.092C435.951 27.072 436.041 25.7913 436.041 24.25ZM444.621 32.342C445.392 31.73 445.743 31.4467 445.675 31.492C447.896 29.656 449.642 28.1487 450.911 26.97C452.203 25.7913 453.291 24.556 454.175 23.264C455.059 21.972 455.501 20.714 455.501 19.49C455.501 18.5607 455.286 17.8353 454.855 17.314C454.424 16.7927 453.778 16.532 452.917 16.532C452.056 16.532 451.376 16.8607 450.877 17.518C450.401 18.1527 450.163 19.0593 450.163 20.238H444.553C444.598 18.3113 445.006 16.702 445.777 15.41C446.57 14.118 447.602 13.166 448.871 12.554C450.163 11.942 451.591 11.636 453.155 11.636C455.852 11.636 457.881 12.3273 459.241 13.71C460.624 15.0927 461.315 16.8947 461.315 19.116C461.315 21.5413 460.488 23.7967 458.833 25.882C457.178 27.9447 455.07 29.962 452.509 31.934H461.689V36.66H444.621V32.342ZM480.093 16.532L471.559 37H465.609L474.245 17.178H463.671V12.214H480.093V16.532ZM509.121 18.368V37H506.027V34.246C505.437 35.198 504.61 35.946 503.545 36.49C502.502 37.0113 501.346 37.272 500.077 37.272C498.626 37.272 497.323 36.9773 496.167 36.388C495.011 35.776 494.093 34.8693 493.413 33.668C492.755 32.4667 492.427 31.0047 492.427 29.282V18.368H495.487V28.874C495.487 30.71 495.951 32.1267 496.881 33.124C497.81 34.0987 499.079 34.586 500.689 34.586C502.343 34.586 503.647 34.076 504.599 33.056C505.551 32.036 506.027 30.5513 506.027 28.602V18.368H509.121ZM523.423 18.028C525.689 18.028 527.525 18.7193 528.931 20.102C530.336 21.462 531.039 23.434 531.039 26.018V37H527.979V26.46C527.979 24.6013 527.514 23.1847 526.585 22.21C525.655 21.2127 524.386 20.714 522.777 20.714C521.145 20.714 519.841 21.224 518.867 22.244C517.915 23.264 517.439 24.7487 517.439 26.698V37H514.345V18.368H517.439V21.02C518.051 20.068 518.878 19.3313 519.921 18.81C520.986 18.2887 522.153 18.028 523.423 18.028ZM539.867 20.918V31.9C539.867 32.8067 540.059 33.4527 540.445 33.838C540.83 34.2007 541.499 34.382 542.451 34.382H544.729V37H541.941C540.218 37 538.926 36.6033 538.065 35.81C537.203 35.0167 536.773 33.7133 536.773 31.9V20.918H534.359V18.368H536.773V13.676H539.867V18.368H544.729V20.918H539.867ZM565.001 18.368V37H561.907V34.246C561.318 35.198 560.491 35.946 559.425 36.49C558.383 37.0113 557.227 37.272 555.957 37.272C554.507 37.272 553.203 36.9773 552.047 36.388C550.891 35.776 549.973 34.8693 549.293 33.668C548.636 32.4667 548.307 31.0047 548.307 29.282V18.368H551.367V28.874C551.367 30.71 551.832 32.1267 552.761 33.124C553.691 34.0987 554.96 34.586 556.569 34.586C558.224 34.586 559.527 34.076 560.479 33.056C561.431 32.036 561.907 30.5513 561.907 28.602V18.368H565.001ZM580.629 37L573.319 28.772V37H570.225V11.84H573.319V26.63L580.493 18.368H584.811L576.039 27.65L584.845 37H580.629Z" fill="black"/>
<path d="M618.48 22.108L617.528 26.562H621.608V31.798H616.406L615.284 37H609.844L610.966 31.798H605.322L604.2 37H598.76L599.882 31.798H594.85V26.562H601.004L601.956 22.108H597.026V16.872H603.044L604.132 11.84H609.572L608.484 16.872H614.128L615.216 11.84H620.656L619.568 16.872H623.784V22.108H618.48ZM613.04 22.108H607.396L606.444 26.562H612.088L613.04 22.108ZM654.054 13.132V37H648.24V22.686L642.902 37H638.21L632.838 22.652V37H627.024V13.132H633.892L640.59 29.656L647.22 13.132H654.054ZM657.079 27.48C657.079 25.5307 657.442 23.8193 658.167 22.346C658.915 20.8727 659.924 19.7393 661.193 18.946C662.462 18.1527 663.879 17.756 665.443 17.756C666.78 17.756 667.948 18.028 668.945 18.572C669.965 19.116 670.747 19.83 671.291 20.714V18.028H677.105V37H671.291V34.314C670.724 35.198 669.931 35.912 668.911 36.456C667.914 37 666.746 37.272 665.409 37.272C663.868 37.272 662.462 36.8753 661.193 36.082C659.924 35.266 658.915 34.1213 658.167 32.648C657.442 31.152 657.079 29.4293 657.079 27.48ZM671.291 27.514C671.291 26.0633 670.883 24.9187 670.067 24.08C669.274 23.2413 668.299 22.822 667.143 22.822C665.987 22.822 665.001 23.2413 664.185 24.08C663.392 24.896 662.995 26.0293 662.995 27.48C662.995 28.9307 663.392 30.0867 664.185 30.948C665.001 31.7867 665.987 32.206 667.143 32.206C668.299 32.206 669.274 31.7867 670.067 30.948C670.883 30.1093 671.291 28.9647 671.291 27.514ZM689.029 37.272C687.374 37.272 685.901 36.9887 684.609 36.422C683.317 35.8553 682.297 35.0847 681.549 34.11C680.801 33.1127 680.382 32.002 680.291 30.778H686.037C686.105 31.4353 686.411 31.968 686.955 32.376C687.499 32.784 688.168 32.988 688.961 32.988C689.686 32.988 690.242 32.852 690.627 32.58C691.035 32.2853 691.239 31.9113 691.239 31.458C691.239 30.914 690.956 30.5173 690.389 30.268C689.822 29.996 688.904 29.7013 687.635 29.384C686.275 29.0667 685.142 28.738 684.235 28.398C683.328 28.0353 682.546 27.48 681.889 26.732C681.232 25.9613 680.903 24.93 680.903 23.638C680.903 22.55 681.198 21.564 681.787 20.68C682.399 19.7733 683.283 19.0593 684.439 18.538C685.618 18.0167 687.012 17.756 688.621 17.756C691.001 17.756 692.871 18.3453 694.231 19.524C695.614 20.7027 696.407 22.2667 696.611 24.216H691.239C691.148 23.5587 690.854 23.0373 690.355 22.652C689.879 22.2667 689.244 22.074 688.451 22.074C687.771 22.074 687.25 22.21 686.887 22.482C686.524 22.7313 686.343 23.0827 686.343 23.536C686.343 24.08 686.626 24.488 687.193 24.76C687.782 25.032 688.689 25.304 689.913 25.576C691.318 25.9387 692.463 26.3013 693.347 26.664C694.231 27.004 695.002 27.5707 695.659 28.364C696.339 29.1347 696.69 30.1773 696.713 31.492C696.713 32.6027 696.396 33.6 695.761 34.484C695.149 35.3453 694.254 36.0253 693.075 36.524C691.919 37.0227 690.57 37.272 689.029 37.272ZM719.004 18.028V37H713.19V34.416C712.601 35.2547 711.796 35.9347 710.776 36.456C709.779 36.9547 708.668 37.204 707.444 37.204C705.993 37.204 704.713 36.8867 703.602 36.252C702.491 35.5947 701.63 34.654 701.018 33.43C700.406 32.206 700.1 30.7667 700.1 29.112V18.028H705.88V28.33C705.88 29.5993 706.209 30.5853 706.866 31.288C707.523 31.9907 708.407 32.342 709.518 32.342C710.651 32.342 711.547 31.9907 712.204 31.288C712.861 30.5853 713.19 29.5993 713.19 28.33V18.028H719.004ZM734.774 37L728.994 29.044V37H723.18V11.84H728.994V25.746L734.74 18.028H741.914L734.026 27.548L741.982 37H734.774ZM758.648 24.76C760.031 25.0547 761.141 25.746 761.98 26.834C762.819 27.8993 763.238 29.1233 763.238 30.506C763.238 32.5007 762.535 34.0873 761.13 35.266C759.747 36.422 757.809 37 755.316 37H744.198V13.132H754.942C757.367 13.132 759.26 13.6873 760.62 14.798C762.003 15.9087 762.694 17.416 762.694 19.32C762.694 20.7253 762.32 21.8927 761.572 22.822C760.847 23.7513 759.872 24.3973 758.648 24.76ZM750.012 22.788H753.82C754.772 22.788 755.497 22.584 755.996 22.176C756.517 21.7453 756.778 21.122 756.778 20.306C756.778 19.49 756.517 18.8667 755.996 18.436C755.497 18.0053 754.772 17.79 753.82 17.79H750.012V22.788ZM754.296 32.308C755.271 32.308 756.019 32.0927 756.54 31.662C757.084 31.2087 757.356 30.5627 757.356 29.724C757.356 28.8853 757.073 28.228 756.506 27.752C755.962 27.276 755.203 27.038 754.228 27.038H750.012V32.308H754.296ZM765.454 27.48C765.454 25.5307 765.817 23.8193 766.542 22.346C767.29 20.8727 768.299 19.7393 769.568 18.946C770.837 18.1527 772.254 17.756 773.818 17.756C775.155 17.756 776.323 18.028 777.32 18.572C778.34 19.116 779.122 19.83 779.666 20.714V18.028H785.48V37H779.666V34.314C779.099 35.198 778.306 35.912 777.286 36.456C776.289 37 775.121 37.272 773.784 37.272C772.243 37.272 770.837 36.8753 769.568 36.082C768.299 35.266 767.29 34.1213 766.542 32.648C765.817 31.152 765.454 29.4293 765.454 27.48ZM779.666 27.514C779.666 26.0633 779.258 24.9187 778.442 24.08C777.649 23.2413 776.674 22.822 775.518 22.822C774.362 22.822 773.376 23.2413 772.56 24.08C771.767 24.896 771.37 26.0293 771.37 27.48C771.37 28.9307 771.767 30.0867 772.56 30.948C773.376 31.7867 774.362 32.206 775.518 32.206C776.674 32.206 777.649 31.7867 778.442 30.948C779.258 30.1093 779.666 28.9647 779.666 27.514ZM795.5 21.19C796.18 20.1473 797.03 19.3313 798.05 18.742C799.07 18.13 800.203 17.824 801.45 17.824V23.978H799.852C798.401 23.978 797.313 24.2953 796.588 24.93C795.863 25.542 795.5 26.63 795.5 28.194V37H789.686V18.028H795.5V21.19ZM803.073 27.48C803.073 25.5307 803.436 23.8193 804.161 22.346C804.909 20.8727 805.918 19.7393 807.187 18.946C808.456 18.1527 809.873 17.756 811.437 17.756C812.774 17.756 813.942 18.028 814.939 18.572C815.959 19.116 816.741 19.83 817.285 20.714V18.028H823.099V37H817.285V34.314C816.718 35.198 815.925 35.912 814.905 36.456C813.908 37 812.74 37.272 811.403 37.272C809.862 37.272 808.456 36.8753 807.187 36.082C805.918 35.266 804.909 34.1213 804.161 32.648C803.436 31.152 803.073 29.4293 803.073 27.48ZM817.285 27.514C817.285 26.0633 816.877 24.9187 816.061 24.08C815.268 23.2413 814.293 22.822 813.137 22.822C811.981 22.822 810.995 23.2413 810.179 24.08C809.386 24.896 808.989 26.0293 808.989 27.48C808.989 28.9307 809.386 30.0867 810.179 30.948C810.995 31.7867 811.981 32.206 813.137 32.206C814.293 32.206 815.268 31.7867 816.061 30.948C816.877 30.1093 817.285 28.9647 817.285 27.514ZM838.865 17.824C841.087 17.824 842.855 18.5493 844.169 20C845.507 21.428 846.175 23.4 846.175 25.916V37H840.395V26.698C840.395 25.4287 840.067 24.4427 839.409 23.74C838.752 23.0373 837.868 22.686 836.757 22.686C835.647 22.686 834.763 23.0373 834.105 23.74C833.448 24.4427 833.119 25.4287 833.119 26.698V37H827.305V18.028H833.119V20.544C833.709 19.7053 834.502 19.048 835.499 18.572C836.497 18.0733 837.619 17.824 838.865 17.824ZM857.423 17.756C858.761 17.756 859.928 18.028 860.925 18.572C861.945 19.116 862.727 19.83 863.271 20.714V18.028H869.085V36.966C869.085 38.7113 868.734 40.2867 868.031 41.692C867.351 43.12 866.297 44.2533 864.869 45.092C863.464 45.9307 861.707 46.35 859.599 46.35C856.789 46.35 854.511 45.6813 852.765 44.344C851.02 43.0293 850.023 41.2387 849.773 38.972H855.519C855.701 39.6973 856.131 40.264 856.811 40.672C857.491 41.1027 858.33 41.318 859.327 41.318C860.529 41.318 861.481 40.9667 862.183 40.264C862.909 39.584 863.271 38.4847 863.271 36.966V34.28C862.705 35.164 861.923 35.8893 860.925 36.456C859.928 37 858.761 37.272 857.423 37.272C855.859 37.272 854.443 36.8753 853.173 36.082C851.904 35.266 850.895 34.1213 850.147 32.648C849.422 31.152 849.059 29.4293 849.059 27.48C849.059 25.5307 849.422 23.8193 850.147 22.346C850.895 20.8727 851.904 19.7393 853.173 18.946C854.443 18.1527 855.859 17.756 857.423 17.756ZM863.271 27.514C863.271 26.0633 862.863 24.9187 862.047 24.08C861.254 23.2413 860.279 22.822 859.123 22.822C857.967 22.822 856.981 23.2413 856.165 24.08C855.372 24.896 854.975 26.0293 854.975 27.48C854.975 28.9307 855.372 30.0867 856.165 30.948C856.981 31.7867 857.967 32.206 859.123 32.206C860.279 32.206 861.254 31.7867 862.047 30.948C862.863 30.1093 863.271 28.9647 863.271 27.514Z" fill="white"/>
</svg>
